<svg width="500" height="500" viewBox="0 0 500 500" fill="none" xmlns="http://www.w3.org/2000/svg">
<path d="M226.844 1.61309C291.576 -6.62982 346.655 17.2908 393.767 60.2701L349.102 90.7556C320.214 65.9099 289.014 52.834 250.602 52.1192C208.627 51.1073 168.007 67.011 137.878 96.2535C107.858 124.993 90.8356 164.718 90.7357 206.279C90.31 276.127 127.878 306.094 172.391 350.96L243.558 422.822C280.358 382.553 324.058 341.985 362.359 302.552L370.962 293.241C390.82 293.129 411.012 293.496 430.896 293.67C411.74 333.055 380.821 359.873 350.704 390.745L243.598 500L140.531 395.435C118.999 373.405 84.0828 339.868 68.4655 314.793C53.2293 290.126 43.3925 262.51 39.6055 233.766C32.7778 179.487 47.9036 124.73 81.6255 81.652C118.729 33.8383 167.637 9.07548 226.844 1.61309Z" fill="#060D20"/>
<path d="M460.221 125.152L461.106 126.639C451.748 168.584 432.153 224.283 419.247 266.764C409.885 251.83 400.282 237.05 390.443 222.427C371.182 236.895 351.638 251.073 332.246 265.319C292.11 294.803 251.486 310.353 202.899 290.233C197.661 287.471 192.397 284.546 187.186 281.715C242.678 274.994 305.455 219.847 349.925 185.072L307.714 155.149C357.042 144.746 410.634 133.741 460.221 125.152Z" fill="#00FF88"/>
</svg>
