<svg width="1194" height="270" viewBox="0 0 1194 270" fill="none" xmlns="http://www.w3.org/2000/svg">
<path fill-rule="evenodd" clip-rule="evenodd" d="M778.759 107.673C803.216 104.671 820.071 117.118 819.817 142.342C819.661 157.986 819.59 174.511 820.036 190.136L802.968 190.021L802.735 179.784C801.13 181.424 798.571 184.255 796.74 185.462C781.652 195.387 761.592 194.316 750.542 179.492C735.108 148.145 770.183 136.713 793.897 141.227C795.905 141.61 800.31 141.87 801.993 140.823C804.573 129.967 792.285 120.899 781.998 123.084C773.584 124.872 770.784 125.947 765.382 132.714C760.433 129.772 756.042 126.94 751.249 123.776C758.566 113.611 766.676 109.652 778.759 107.673ZM802.346 154.929C795.064 154.613 787.817 154.177 780.535 154.433C770.467 155.647 758.263 161.429 769.116 173.643C772.771 177.76 781.34 176.958 786.685 176.503C798.924 171.725 801.618 168.116 802.346 154.929Z" fill="white"/>
<path fill-rule="evenodd" clip-rule="evenodd" d="M695.258 107.449C713.91 107.077 729.147 116.156 734.917 134.525C737.207 141.82 737.08 148.121 737.143 155.645C715.911 155.53 694.679 155.593 673.454 155.832C679.817 174.491 694.438 181.306 712.757 171.186C715.529 169.653 718.252 165.381 720.578 165.355L734.011 173.934C720.67 192.666 692.558 197.466 673.687 184.812C664.736 178.723 658.571 169.315 656.577 158.67C651.444 132.648 666.094 112.525 691.738 107.645C692.911 107.539 694.085 107.472 695.258 107.449ZM719.616 141.363C714.865 127.057 708.465 122.595 693.371 123.196C681.429 125.985 677.809 130.342 673.552 141.447L700.49 141.435L719.616 141.363Z" fill="white"/>
<path fill-rule="evenodd" clip-rule="evenodd" d="M440.057 107.644C461.431 105.747 479.464 116.741 484.017 138.549C485.264 144.522 485.072 149.555 485.016 155.598L421.58 155.688C427.317 175.273 443.944 181.537 462.096 170.411C464.56 168.901 465.444 166.172 468.223 165.374L481.893 174.002C475.151 182.723 467.516 188.364 456.355 190.694C416.345 199.048 389.549 158.694 411.281 124.718C417.829 114.48 428.152 109.745 440.057 107.644ZM467.619 141.376C463.529 127.823 455.89 122.157 441.597 123.19C429.695 126.322 426.081 130.165 421.828 141.478L449.205 141.436L467.619 141.376Z" fill="white"/>
<path d="M333.052 78.0896C354.814 76.9647 370.936 86.4854 383.714 103.434C378.661 106.78 373.674 110.223 368.755 113.762C357.092 97.8445 338.85 91.252 320.064 98.7967C310.737 102.604 303.321 109.986 299.473 119.297C295.274 129.526 295.318 141.006 299.595 151.202C303.516 160.456 310.987 167.752 320.331 171.453C342.881 180.387 364.471 169.354 372.686 146.956C361.212 146.581 347.93 147.616 336.719 146.663C335.273 145.156 335.779 145.131 335.675 142.317L335.624 129.678C353.907 130.113 373.38 129.753 391.751 129.721C392.221 141.882 390.945 152.076 385.259 163.048C368.862 194.69 324.526 200.805 297.753 178.433C286.335 168.985 279.183 155.352 277.896 140.588C274.982 105.973 299.16 80.7998 333.052 78.0896Z" fill="white"/>
<path d="M523.63 87.3025L523.717 109.101L545.021 109.201L545.071 125.242L523.648 125.231C523.796 137.216 523.386 149.004 523.32 160.963C523.5 164.778 524.526 168.739 527.599 171.233C532.582 175.277 539.118 174.123 545.071 173.701L545.036 182.264C545.114 184.865 545.445 187.056 544.484 189.418C534.091 195.111 509.67 187.142 507.477 174.692C504.818 159.587 505.988 140.812 506.063 125.236L492.142 125.203L492.132 109.161L506.061 109.208C505.981 101.952 506.086 94.5336 506.115 87.2625L523.63 87.3025Z" fill="white"/>
<path fill-rule="evenodd" clip-rule="evenodd" d="M563.277 79.8162C577.969 79.7823 611.306 77.8795 623.813 83.1736C651.486 94.8891 652.638 134.716 622.554 147.336C632.071 161.107 641.079 176.013 650.787 190.136C644.628 189.984 637.989 190.109 631.796 190.127C631.414 190.147 630.926 190.195 630.551 190.112C627.066 189.329 607.855 155.761 604.695 150.556L581.384 150.512L581.321 190.111L563.242 190.082L563.277 79.8162ZM610.344 97.3103C601.591 95.9939 590.392 96.9826 581.335 96.9324L581.293 134.263C593.164 134.329 611.441 136.372 620.668 129.258C630.919 117.256 627.186 99.8443 610.344 97.3103Z" fill="white"/>
<path d="M855.005 190.01L837.747 190.088L837.718 78.3943C843.417 78.4714 849.413 78.3572 855.132 78.3289L855.005 190.01Z" fill="white"/>
<path fill-rule="evenodd" clip-rule="evenodd" d="M1028.37 108.185C1051.28 104.701 1072.67 120.449 1076.15 143.357C1079.62 166.264 1063.87 187.652 1040.96 191.123C1018.06 194.591 996.687 178.844 993.208 155.947C989.737 133.049 1005.48 111.667 1028.37 108.185ZM1038.71 175.28C1070.17 166.194 1063.46 121.525 1030.52 123.864C999.106 133.171 1005.77 177.582 1038.71 175.28Z" fill="#00FF88"/>
<path d="M1176.65 109.117L1193.94 109.252L1187.66 130.5L1170.17 190.155L1154.14 190.121L1136.71 134.54C1130.87 153.107 1124.59 171.436 1119.15 190.146L1103.08 190.082L1079.88 109.12L1097.39 109.26C1101.51 126.93 1107.28 146.541 1112.05 164.156C1117.76 145.848 1123.37 127.512 1128.9 109.145L1144.6 109.192C1148.9 126.457 1156.26 146.976 1161.28 164.706C1165.2 147.376 1171.73 126.31 1176.65 109.117Z" fill="#00FF88"/>
<path d="M879.236 79.8303L948.786 79.708L948.765 96.956L897.074 97.0232L897.088 127.529C911.795 128.012 928.735 127.638 943.569 127.662L943.533 139.437C943.533 140.81 943.42 142.174 943.321 143.545C940.281 146.201 903.982 144.756 897.102 144.843L897.046 190.143L879.193 190.07C878.925 153.324 878.939 116.576 879.236 79.8303Z" fill="#00FF88"/>
<path d="M962.453 78.4606L979.831 78.3574L979.732 190.111L962.424 190.104C961.647 154.133 962.262 114.567 962.453 78.4606Z" fill="#00FF88"/>
<path d="M101.61 0.867946C136.44 -3.56726 166.076 9.30352 191.425 32.4291L167.392 48.8322C151.849 35.4637 135.061 28.428 114.393 28.0434C91.8079 27.499 69.9521 36.0561 53.7406 51.7904C37.5877 67.2539 28.4289 88.6289 28.3751 110.991C28.146 148.574 48.3601 164.698 72.3107 188.839L110.603 227.505C130.404 205.838 153.917 184.01 174.526 162.792L179.154 157.782C189.839 157.722 200.704 157.919 211.403 158.013C201.096 179.205 184.459 193.634 168.254 210.245L110.625 269.031L55.1681 212.769C43.5827 200.915 24.7954 182.87 16.3924 169.378C8.19433 156.106 2.9015 141.247 0.863836 125.781C-2.8099 96.5752 5.32874 67.1125 23.4733 43.9339C43.437 18.2071 69.7527 4.88318 101.61 0.867946Z" fill="white"/>
<path d="M227.181 67.3398L227.658 68.1395C222.622 90.7087 212.079 120.678 205.135 143.536C200.098 135.501 194.931 127.548 189.636 119.68C179.273 127.464 168.757 135.093 158.323 142.758C136.727 158.623 114.869 166.99 88.7262 156.163C85.9079 154.677 83.0756 153.103 80.2715 151.581C110.129 147.964 143.908 118.291 167.835 99.5805L145.123 83.48C171.664 77.8824 200.501 71.961 227.181 67.3398Z" fill="#00FF88"/>
</svg>
